<?xml version="1.0" encoding="UTF-8" standalone="no"?>
<svg
   version="1.1"
   id="Livello_1"
   x="0px"
   y="0px"
   viewBox="0 0 733.48163 426.67804"
   xml:space="preserve"
   sodipodi:docname="jeddah.svg"
   width="733.48163"
   height="426.67804"
   inkscape:version="1.2.2 (b0a84865, 2022-12-01)"
   xmlns:inkscape="http://www.inkscape.org/namespaces/inkscape"
   xmlns:sodipodi="http://sodipodi.sourceforge.net/DTD/sodipodi-0.dtd"
   xmlns="http://www.w3.org/2000/svg"
   xmlns:svg="http://www.w3.org/2000/svg"><defs
   id="defs315" /><sodipodi:namedview
   id="namedview313"
   pagecolor="#ffffff"
   bordercolor="#000000"
   borderopacity="0.25"
   inkscape:showpageshadow="2"
   inkscape:pageopacity="0.0"
   inkscape:pagecheckerboard="0"
   inkscape:deskcolor="#d1d1d1"
   showgrid="false"
   inkscape:zoom="2.1048016"
   inkscape:cx="366.06776"
   inkscape:cy="242.54068"
   inkscape:window-width="2124"
   inkscape:window-height="1387"
   inkscape:window-x="1423"
   inkscape:window-y="25"
   inkscape:window-maximized="0"
   inkscape:current-layer="Livello_1" />
<style
   type="text/css"
   id="style9">
	.st0{fill:none;stroke:#011321;stroke-width:2;}
	.st1{fill:#A0D9E2;}
	.st2{fill:#1D1D1B;}
	.st3{font-family:NeueHaasUnicaPro-Bold, Neue Haas Unica Pro;font-weight:700}
	.st4{font-size:8.03px;}
	.st5{fill-rule:evenodd;clip-rule:evenodd;fill:#0C111B;}
</style>





























<g
   id="g16788"><g
     id="Layer_1"
     transform="translate(-17.257639,-86.659605)">
	
<g
   id="path7846"
   style="fill:none;stroke:#d50000;stroke-opacity:1;stroke-width:0.96;stroke-dasharray:none"><path
     style="color:#000000;fill:none;stroke-width:0.96;stroke:#000000;stroke-opacity:1;stroke-dasharray:none"
     d="m 737.88281,86.673828 c -1.36854,-0.06463 -2.76346,0.08335 -4.13672,0.458984 -5.61347,1.356765 -8.70074,4.206882 -12.14257,6.763672 -14.94707,10.760936 -41.04107,27.259916 -57.03711,37.357426 l -0.002,0.002 -0.002,0.002 c -56.13221,35.82056 -58.52073,41.88896 -107.39453,81.76758 l -0.006,0.004 -61.70703,51.70703 -0.002,0.002 c -3.94155,3.35034 -9.01164,6.84941 -12.46874,10.51367 -1.72855,1.83213 -3.07919,3.71582 -3.61524,5.75782 -0.53604,2.04199 -0.1345,4.24166 1.45117,6.21679 0.15797,0.19701 0.26091,0.27637 0.42969,0.43164 0.16954,0.15598 0.37829,0.34453 0.61914,0.56641 0.4817,0.44376 1.08713,1.01821 1.69922,1.67969 1.22418,1.32295 2.44153,3.01173 2.78125,4.49414 0.33972,1.48241 0.0945,2.72069 -2.04688,4.0664 -2.14141,1.34572 -6.30463,2.54282 -13.37304,3.03711 -8.10459,0.5467 -12.78021,0.34272 -17.22266,0.81641 -4.44345,0.4738 -8.58135,1.6519 -15.33789,4.87891 l -0.002,0.002 h -0.004 c -12.99626,6.29507 -42.51714,25.85908 -59.7168,35.00781 -1.02648,0.51296 -4.00508,1.82993 -6.81054,3.10742 -1.40389,0.63927 -2.77315,1.27403 -3.86524,1.81055 -0.54604,0.26826 -1.02213,0.51119 -1.4082,0.72461 -0.38607,0.21342 -0.65127,0.35509 -0.93164,0.60742 l -0.0117,0.01 -0.0117,0.0117 c -0.87856,0.84195 -1.25956,2.05266 -1.5332,3.44921 -0.27364,1.39656 -0.39668,3.01173 -0.47266,4.68946 -0.15194,3.35546 -0.11735,6.99315 -0.48828,9.21875 -1.99955,11.89523 -15.4647,24.21912 -31.82422,22.86718 -8.48962,-0.7631 -17.51659,-7.16809 -32.35742,0.7129 l -0.004,0.002 -0.002,0.002 c -3.23551,1.74615 -7.5438,4.67077 -11.41601,8.00977 -3.87222,3.33899 -7.31482,7.04094 -8.73829,10.59961 -2.80948,6.899 -2.63877,11.31594 -3.62109,14.30859 -0.49131,1.49679 -1.20375,2.67073 -2.79101,3.92383 -1.58725,1.2531 -4.0827,2.54351 -8.00782,4 h 0.004 c -3.4621,1.27283 -8.78542,3.61148 -14.22461,5.51953 -5.43744,1.90744 -11.01756,3.33409 -14.61328,2.92578 -5.68916,-0.66931 -9.01198,-3.2699 -11.97656,-6.42969 -2.96459,-3.15978 -5.47603,-6.92091 -9.38868,-9.51172 l -0.002,-0.002 h -0.004 c -5.29006,-3.45687 -10.67934,-3.67131 -15.95507,-2.82617 -5.27574,0.84514 -10.51382,2.69143 -15.83594,3.47266 h -0.002 c -12.01967,1.77339 -22.95471,-0.0355 -35.27149,2.71289 -12.53263,2.79066 -32.66394,10.92852 -53.080077,19.81054 -20.416137,8.88202 -41.076724,18.51023 -54.398437,24.24805 -4.724439,2.03897 -9.371678,3.79572 -13.244141,6.37305 -3.871372,2.5766 -6.961585,6.04539 -8.326172,11.28906 -2.809981,10.61548 2.276787,19.65243 11.029297,23.47266 8.752184,3.82008 21.06936,2.55184 32.849609,-6.62696 6.153375,-4.77417 11.963192,-15.5532 21.716797,-25.5664 9.753605,-10.01321 23.253394,-19.24542 44.445314,-20.82617 h 0.002 c 12.86873,-0.98235 24.25828,2.72559 36.42969,1.39648 h 0.002 c 5.36993,-0.50763 10.75245,-1.62242 15.84766,-3.55859 l -0.0137,0.006 c 5.95614,-2.16586 9.796,-2.53882 12.45117,-1.9375 2.65517,0.60134 4.27792,2.14389 5.92773,4.28321 3.29915,4.27801 6.42978,10.88325 16.50782,13.67578 10.42894,2.9496 24.68253,-2.00847 32.64648,-5.23438 v -0.002 h 0.002 c 22.22655,-9.02166 32.41499,-20.60615 43.04688,-31.78711 10.63189,-11.18095 21.70762,-21.99544 46.18945,-30.08984 19.46533,-6.42155 33.41777,-13.35193 47.14063,-29.29297 l 0.004,-0.004 c 5.47826,-6.29078 10.97346,-14.88806 16.40821,-21.41015 l 0.002,-0.002 c 16.67374,-19.92806 46.39754,-33.88328 74.47851,-38.05078 7.00142,-1.04276 12.08791,-1.24483 16.29883,-2.66601 4.21092,-1.42119 7.42727,-4.18213 10.25,-9.87891 l 0.002,-0.002 0.002,-0.004 c 2.31261,-4.73035 2.60768,-9.72986 4.70703,-14.21484 l 0.006,-0.0137 0.008,-0.0156 c 1.72303,-4.02039 4.59136,-7.46121 8.32031,-9.85156 l 0.0234,-0.0156 0.0234,-0.0176 c 2.54381,-1.84551 6.83163,-4.91224 11.23047,-7.75782 4.39883,-2.84557 8.96213,-5.4716 11.79492,-6.40039 v -0.002 c 3.11577,-1.02376 9.60767,-0.87532 16.20703,-0.25391 6.59936,0.62141 13.37687,1.64469 17.57227,2.09961 l -0.002,-0.002 c 27.07772,2.99753 41.02845,5.39979 65.70118,-5.17383 11.81995,-5.03633 35.86379,-22.38068 45.64453,-30.44726 30.4483,-25.02187 48.09141,-54.26625 58.53125,-93.7168 v -0.002 c 2.59881,-9.89548 5.29963,-19.89439 7.90039,-29.69726 l -0.004,0.01 c 0.80612,-2.92219 1.41522,-5.48394 1.375,-8.03124 -0.0402,-2.547316 -0.76677,-5.053546 -2.5039,-7.685552 -2.35295,-3.569997 -6.23424,-5.680567 -10.35157,-5.875 z m -0.0918,1.996094 c 3.49516,0.161817 6.77639,1.950473 8.77343,4.980469 1.56288,2.367988 2.13905,4.41254 2.17383,6.615229 0.0348,2.20269 -0.50886,4.59094 -1.30273,7.46876 v 0.004 l -0.002,0.006 c -2.59923,9.79711 -5.29921,19.79669 -7.90039,29.70117 -10.36019,39.14843 -27.71602,67.90395 -57.86718,92.68164 l -0.002,0.002 c -9.61924,7.93339 -33.97622,25.38672 -45.15625,30.15039 v 0.002 h -0.002 c -24.32611,10.42547 -37.57373,8.02778 -64.69531,5.02539 h -0.002 c -4.10459,-0.44508 -10.92593,-1.47297 -17.60156,-2.10156 -6.67562,-0.62859 -13.13531,-0.93054 -17.01953,0.3457 v -0.002 c -3.26721,1.07121 -7.8047,3.74558 -12.25586,6.625 -4.43293,2.86763 -8.71148,5.92826 -11.27148,7.78515 -4.0653,2.60596 -7.19246,6.35881 -9.07032,10.73047 -2.29486,4.91065 -2.60204,9.90616 -4.6875,14.17188 -2.67622,5.39876 -5.31,7.5869 -9.09765,8.86523 -3.78908,1.27881 -8.85261,1.52675 -15.95117,2.58399 -28.518,4.23235 -58.59416,18.27725 -75.72071,38.74804 l -0.002,0.002 c -5.5636,6.67632 -11.0647,15.27458 -16.38477,21.38281 l -0.002,0.002 -0.002,0.002 c -13.47592,15.65584 -26.923,22.32527 -46.25586,28.70312 -24.81812,8.20559 -36.34363,19.39231 -47.01172,30.61133 -10.66809,11.21902 -20.47815,22.43418 -42.35156,31.3125 -7.83644,3.17407 -21.98133,7.81423 -31.35157,5.16406 l -0.002,-0.002 h -0.002 c -9.41842,-2.60818 -11.93753,-8.40131 -15.46289,-12.97266 -1.76268,-2.28567 -3.84737,-4.2818 -7.07031,-5.01172 -3.22294,-0.72991 -7.43233,-0.22631 -13.57618,2.00782 l -0.006,0.002 -0.008,0.004 c -4.90045,1.86219 -10.11237,2.94648 -15.33789,3.43946 h -0.008 -0.01 c -11.62783,1.27026 -23.03664,-2.41994 -36.36718,-1.40235 -21.70691,1.61969 -35.757453,11.18738 -45.728521,21.42383 -9.971375,10.23678 -16.061198,21.157 -21.507812,25.38282 l -0.002,0.002 c -11.31933,8.82026 -22.849792,9.85281 -30.822266,6.37305 -7.972473,-3.47976 -12.486498,-11.34441 -9.896484,-21.12891 v -0.002 l 0.002,-0.002 c 1.235998,-4.75384 3.895517,-7.73319 7.498047,-10.13086 3.602529,-2.39767 8.154136,-4.14209 12.929687,-6.20312 13.37826,-5.76217 34.018522,-15.38204 54.402344,-24.25 20.383825,-8.86796 40.551405,-16.98208 52.718745,-19.69141 11.88257,-2.65148 22.74748,-0.86138 35.12696,-2.6875 5.57787,-0.81877 10.83903,-2.6717 15.86328,-3.47656 5.02426,-0.80486 9.735,-0.61773 14.54492,2.52539 3.4849,2.3093 5.92221,5.89523 9.03125,9.20898 3.11041,3.31521 6.98839,6.31619 13.19922,7.04688 h 0.002 0.002 c 4.30439,0.49037 9.97006,-1.08345 15.50586,-3.02539 5.5358,-1.94195 10.91406,-4.30213 14.25195,-5.5293 h 0.002 l 0.004,-0.002 c 4.02488,-1.49351 6.69234,-2.83904 8.54883,-4.30469 1.85649,-1.46565 2.86943,-3.09288 3.45312,-4.87109 1.16738,-3.55642 0.88838,-7.58628 3.57617,-14.1836 v -0.004 l 0.002,-0.002 c 1.17653,-2.94132 4.43472,-6.59017 8.1875,-9.82617 3.75064,-3.23416 7.98865,-6.10742 11.05273,-7.76172 l 0.006,-0.004 c 14.15489,-7.51348 21.92744,-1.32113 31.23633,-0.48438 l 0.002,0.002 h 0.004 c 17.43691,1.44447 31.76749,-11.42853 33.96875,-24.53125 v -0.002 c 0.42906,-2.57439 0.36562,-6.1875 0.51367,-9.45703 0.074,-1.63476 0.19864,-3.17546 0.4375,-4.39453 0.23788,-1.21409 0.63046,-2.06955 0.95117,-2.38086 -0.0106,0.0126 0.21575,-0.15114 0.54297,-0.33203 0.33893,-0.18736 0.79331,-0.41982 1.32227,-0.67969 1.0579,-0.51973 2.41443,-1.14942 3.81054,-1.78515 2.79223,-1.27146 5.70694,-2.55268 6.88282,-3.14063 l 0.0117,-0.006 0.0117,-0.006 c 17.40044,-9.25341 47.05762,-28.87497 59.66016,-34.98047 l 0.006,-0.002 c 6.63919,-3.17044 10.45156,-4.24231 14.68164,-4.69336 4.23154,-0.4512 8.95643,-0.25576 17.14844,-0.80859 h 0.002 0.002 c 7.23158,-0.50571 11.64455,-1.67111 14.29688,-3.33789 2.65232,-1.66679 3.41692,-4.0914 2.93164,-6.20899 -0.48528,-2.11758 -1.92966,-3.96671 -3.26172,-5.40625 -0.66603,-0.71977 -1.31217,-1.33204 -1.8125,-1.79297 -0.25017,-0.23046 -0.46476,-0.42257 -0.62109,-0.5664 -0.15634,-0.14383 -0.28186,-0.28493 -0.22266,-0.21094 h -0.002 c -1.26433,-1.57486 -1.4745,-2.93965 -1.07618,-4.45703 0.39833,-1.51738 1.52777,-3.18917 3.13672,-4.89453 3.21654,-3.4093 8.24521,-6.90917 12.30274,-10.35743 l 0.006,-0.004 61.68359,-51.6875 0.01,-0.008 c 48.91319,-39.91144 51.13465,-45.84721 107.19336,-81.6211 l 0.004,-0.002 c 16.00087,-10.10055 42.09301,-26.59314 57.14649,-37.431641 l 0.006,-0.0039 0.006,-0.0059 c 3.55376,-2.63994 6.26461,-5.184364 11.4375,-6.429687 l 0.0156,-0.0039 0.0156,-0.0039 c 1.17296,-0.321985 2.36034,-0.44847 3.5254,-0.394531 z"
     id="path8576" /></g></g><g
     id="POI-Copy-8-3"
     transform="translate(-17.257639,-86.659605)">
	
	
</g><path
     style="fill:#ff0000;fill-opacity:1;stroke:none;stroke-width:0.00331524;stroke-dasharray:none;stroke-opacity:1"
     d="m 247.15247,344.64822 v -0.55087 l 0.0417,-0.0154 c 0.217,-0.0802 0.81358,-0.30717 1.1094,-0.4221 3.37886,-1.3128 5.75339,-2.56292 7.30677,-3.84683 1.01395,-0.83804 1.73213,-1.71015 2.21483,-2.68953 l 0.0586,-0.119 0.56261,-4.3e-4 c 0.30944,-2.4e-4 0.56262,9.6e-4 0.56262,0.003 0,0.002 -0.0198,0.0477 -0.0439,0.10217 -0.63872,1.44054 -1.61017,2.65621 -2.97492,3.72282 -1.39683,1.09169 -3.25605,2.11161 -5.7988,3.18108 -0.82137,0.34546 -1.66198,0.67506 -2.7627,1.08325 -0.10921,0.0405 -0.21605,0.0803 -0.23742,0.0883 l -0.0388,0.0147 z"
     id="path11628" /><path
     style="fill:#ff0000;fill-opacity:1;stroke:none;stroke-width:0.00325088;stroke-dasharray:none;stroke-opacity:1"
     d="m 234.27812,349.68247 v -0.54939 l 0.0748,-0.0269 c 0.32854,-0.11807 1.33747,-0.49318 1.87236,-0.69613 1.63633,-0.62084 3.12368,-1.20809 6.01357,-2.37434 2.474,-0.99841 3.40174,-1.36664 4.35144,-1.72711 0.3922,-0.14887 0.53285,-0.2003 0.54774,-0.2003 h 0.0138 v 0.54746 c 0,0.34512 -0.002,0.54745 -0.005,0.54745 -0.0101,0 -0.65009,0.24546 -1.13749,0.4363 -0.56148,0.21984 -1.61775,0.64194 -2.72882,1.09048 -1.39177,0.56185 -1.76795,0.71331 -2.4946,1.00439 -2.49555,0.99967 -4.38388,1.72635 -6.15467,2.36848 -0.17073,0.0619 -0.31994,0.11626 -0.33158,0.12077 l -0.0212,0.008 z"
     id="path11630" /><path
     style="fill:#ff0000;fill-opacity:1;stroke:none;stroke-width:0.00304574;stroke-dasharray:none;stroke-opacity:1"
     d="m 223.04743,352.8273 v -0.53646 l 0.0172,-0.003 c 0.009,-0.002 0.0826,-0.0137 0.1626,-0.0269 2.94308,-0.486 6.64713,-1.53042 10.90223,-3.07408 0.0648,-0.0235 0.12372,-0.0428 0.13087,-0.0428 h 0.013 v 0.54412 0.54412 l -0.0145,0.005 c -1.1331,0.40873 -2.44668,0.8577 -3.52032,1.20321 -2.79827,0.90053 -5.17917,1.50887 -7.26535,1.85636 -0.18375,0.0306 -0.41067,0.0666 -0.42009,0.0666 -0.004,0 -0.006,-0.16425 -0.006,-0.53647 z"
     id="path11995" /><path
     style="fill:#ff0000;fill-opacity:1;stroke:none;stroke-width:0.00304574;stroke-dasharray:none;stroke-opacity:1"
     d="m 219.38038,353.63837 c -0.66765,-0.0127 -1.25617,-0.0651 -2.01727,-0.17979 -0.20356,-0.0307 -0.60074,-0.0968 -0.64907,-0.1081 l -0.0119,-0.003 v -0.52338 -0.52339 l 0.0119,1.3e-4 c 0.007,7e-5 0.0214,0.002 0.033,0.005 0.0389,0.009 0.38197,0.0688 0.53029,0.0925 0.43578,0.0697 0.87639,0.12729 1.17236,0.15338 0.88464,0.078 1.8704,0.0614 2.99286,-0.0504 0.34139,-0.034 0.68169,-0.0754 1.06812,-0.12981 0.16602,-0.0234 0.49372,-0.073 0.52195,-0.0791 l 0.0143,-0.003 -0.001,0.53828 -0.001,0.53829 -0.0634,0.009 c -1.14518,0.16713 -2.03523,0.2457 -2.98223,0.26328 -0.29682,0.006 -0.31014,0.006 -0.61872,-3.5e-4 z"
     id="path12360" /><path
     style="fill:#ff0000;fill-opacity:1;stroke:none;stroke-width:0.00304574;stroke-dasharray:none;stroke-opacity:1"
     d="m 216.51707,353.3138 c -2.00119,-0.38818 -3.80332,-1.03145 -5.51511,-1.96861 -0.23655,-0.1295 -0.51563,-0.2911 -0.78374,-0.4538 l -0.0778,-0.0472 -1.7e-4,-0.60148 c -1e-4,-0.33081 0.001,-0.60148 0.003,-0.60148 0.002,0 0.0485,0.0305 0.10443,0.0678 0.75494,0.50367 1.63328,0.98605 2.48117,1.36267 0.92509,0.41091 1.89055,0.7406 2.90297,0.99133 0.33757,0.0836 0.72054,0.16861 0.97956,0.21744 l 0.0912,0.0172 v 0.52511 c 0,0.41677 -0.001,0.52503 -0.007,0.52473 -0.004,-2.1e-4 -0.0839,-0.0154 -0.17846,-0.0337 z"
     id="path13088" /><path
     style="fill:#ff0000;fill-opacity:1;stroke:none;stroke-width:0.012103;stroke-dasharray:none;stroke-opacity:1"
     d="m 115.10521,344.89988 2.5e-4,-0.54106 0.81397,-0.28001 c 6.15674,-2.11792 11.22094,-3.58081 15.13415,-4.3718 3.56978,-0.72157 7.28838,-1.14037 11.86106,-1.33584 1.89304,-0.0809 3.08629,-0.11189 6.91302,-0.17944 4.18841,-0.0739 5.97591,-0.12924 8.18426,-0.25327 3.45377,-0.19397 6.54122,-0.54534 9.15082,-1.0414 0.78719,-0.14964 2.78658,-0.58071 3.02051,-0.65121 0.0343,-0.0104 0.0368,0.0237 0.0368,0.51422 0,0.48228 -0.003,0.52616 -0.0368,0.53581 -0.20278,0.058 -1.88427,0.41904 -2.54773,0.54709 -3.59477,0.69377 -7.70384,1.10104 -12.83847,1.27249 -1.4923,0.0498 -2.44221,0.0715 -6.0095,0.13716 -4.09292,0.0753 -5.95328,0.13937 -8.26831,0.28465 -3.30971,0.20771 -6.23908,0.57063 -9.00374,1.11546 -3.9374,0.77595 -9.2711,2.31575 -15.45205,4.4609 -0.51871,0.18003 -0.94657,0.32732 -0.9508,0.32732 -0.004,0 -0.008,-0.24348 -0.007,-0.54107 z m 55.12399,-0.0263 c 0,-0.30626 0.003,-0.43154 0.007,-0.27841 0.004,0.15312 0.004,0.40369 0,0.55682 -0.004,0.15313 -0.007,0.0278 -0.007,-0.27841 z"
     id="path13094" /><path
     style="fill:#ff0000;fill-opacity:1;stroke:none;stroke-width:0.00225;stroke-dasharray:none;stroke-opacity:1"
     d="m 210.08008,350.80701 c -0.0215,-0.0136 -0.0883,-0.0561 -0.14844,-0.0943 -1.02139,-0.64882 -2.05073,-1.44552 -3.04492,-2.35675 -0.91854,-0.84189 -1.80896,-1.76804 -2.97489,-3.09425 -0.22597,-0.25704 -0.44699,-0.51092 -0.44699,-0.51344 0,-10e-4 0.31006,-0.002 0.68901,-0.002 h 0.689 l 0.13033,0.14746 c 1.43471,1.62333 2.65436,2.81831 3.86666,3.7885 0.39635,0.31719 0.83459,0.64071 1.23004,0.90806 l 0.0718,0.0486 -0.002,0.29492 c -0.001,0.16221 -0.002,0.43072 -0.002,0.59668 v 0.30176 l -0.009,-10e-5 c -0.005,-6e-5 -0.0264,-0.0113 -0.0478,-0.0249 z"
     id="path13100" /><path
     style="fill:#ff0000;fill-opacity:1;stroke:none;stroke-width:0.00262425;stroke-dasharray:none;stroke-opacity:1"
     d="m 203.38181,344.65364 c -0.0451,-0.0523 -0.12808,-0.14842 -0.18439,-0.21363 -0.0563,-0.0652 -0.34953,-0.4066 -0.6516,-0.75867 -1.13564,-1.32359 -1.56601,-1.81448 -2.1409,-2.44197 -0.82361,-0.89897 -1.61708,-1.68586 -2.3196,-2.30037 -0.0613,-0.0536 -0.11655,-0.10232 -0.12276,-0.10821 l -0.0113,-0.0107 0.77897,1e-4 0.77897,1.1e-4 0.15035,0.14437 c 0.62873,0.60371 1.29783,1.30352 2.01162,2.10395 0.47489,0.53254 0.86191,0.98028 1.78579,2.06599 0.61383,0.72136 0.9253,1.08423 1.24482,1.45025 0.0696,0.0797 0.12654,0.1479 0.12654,0.15149 0,0.006 -0.0823,0.007 -0.60066,0.007 -0.33036,0 -0.63738,10e-4 -0.68226,0.003 l -0.0816,0.003 z"
     id="path13102" /><path
     style="fill:#ff0000;fill-opacity:1;stroke:none;stroke-width:0.00262425;stroke-dasharray:none;stroke-opacity:1"
     d="m 197.87781,338.7579 c -0.64304,-0.55137 -1.31839,-1.05942 -1.94733,-1.46493 -0.91905,-0.59256 -1.92346,-1.12573 -2.87369,-1.52544 l -0.0103,-0.004 v -0.20967 -0.20967 h 0.77456 0.77456 l 0.10133,0.0507 c 0.70217,0.35127 1.55249,0.85268 2.20506,1.30024 0.76015,0.52135 1.55637,1.15939 2.31331,1.85375 0.19878,0.18235 0.27336,0.25401 0.27336,0.26268 0,0.009 -0.0103,0.009 -0.76919,0.009 h -0.76919 z"
     id="path13104" /><path
     style="fill:#ff0000;fill-opacity:1;stroke:none;stroke-width:0.00262425;stroke-dasharray:none;stroke-opacity:1"
     d="m 192.98959,335.7395 c -0.0688,-0.0296 -0.36663,-0.14881 -0.48785,-0.19537 -0.99711,-0.38295 -2.06004,-0.67969 -3.12401,-0.87215 -0.63411,-0.11469 -1.2501,-0.19308 -1.9362,-0.2464 l -0.0399,-0.003 v -0.50974 c 0,-0.40475 10e-4,-0.50973 0.006,-0.50972 0.003,10e-6 0.0703,0.005 0.14921,0.0114 2.46959,0.19652 4.7361,0.80671 6.88752,1.85428 0.0975,0.0475 0.11049,0.055 0.11049,0.0645 v 0.0107 h -0.7563 -0.75629 v 0.20501 0.20502 l -0.0103,-3.6e-4 c -0.006,-1.9e-4 -0.0246,-0.007 -0.0421,-0.014 z"
     id="path13106" /><path
     style="fill:#ff0000;fill-opacity:1;stroke:none;stroke-width:0.00262425;stroke-dasharray:none;stroke-opacity:1"
     d="m 177.67006,334.93919 v -0.53286 l 0.0111,-0.003 c 0.0284,-0.007 0.42881,-0.0948 0.62902,-0.13771 2.56403,-0.54968 4.60267,-0.83146 6.53785,-0.90366 0.57114,-0.0213 1.26601,-0.0213 1.81784,0 0.22123,0.009 0.64268,0.0315 0.71302,0.0389 l 0.025,0.003 -10e-4,0.51028 -0.001,0.51028 -0.0239,-0.003 c -0.0403,-0.004 -0.23478,-0.0167 -0.43848,-0.0277 -0.35404,-0.0193 -0.73301,-0.0265 -1.24224,-0.0236 -0.42286,0.002 -0.51871,0.004 -0.81934,0.0168 -1.84789,0.0766 -3.84709,0.35554 -6.25709,0.8729 -0.30663,0.0658 -0.91763,0.20165 -0.94252,0.20952 -0.008,0.002 -0.008,-0.0249 -0.008,-0.53035 z"
     id="path13108" /><path
     style="fill:#ff0000;fill-opacity:1;stroke:none;stroke-width:0.00262425;stroke-dasharray:none;stroke-opacity:1"
     d="m 170.2028,337.29498 c 0,-0.002 0.004,-0.0188 0.008,-0.0376 0.007,-0.0313 0.008,-0.0728 0.008,-0.4966 2e-5,-0.43575 -4.7e-4,-0.46423 -0.008,-0.49349 -0.005,-0.0171 -0.008,-0.0319 -0.006,-0.033 0.001,-10e-4 0.12171,-0.0305 0.26812,-0.0654 0.79837,-0.19046 1.35537,-0.32879 3.49639,-0.86833 1.04973,-0.26454 1.83511,-0.45833 2.47163,-0.60986 0.51239,-0.12199 1.2027,-0.2808 1.22054,-0.2808 h 0.01 l 0.001,0.53013 0.001,0.53013 -0.1139,0.0261 c -0.86207,0.19789 -1.93986,0.46234 -3.77008,0.92503 -1.57615,0.39846 -2.70121,0.6751 -3.4754,0.85455 -0.1,0.0232 -0.11017,0.0249 -0.11016,0.0191 z"
     id="path13110" /><path
     style="fill:#ff0000;fill-opacity:1;stroke:none;stroke-width:0.00262425;stroke-dasharray:none;stroke-opacity:1"
     d="m 162.34826,338.10509 v -0.51 l 0.0194,-0.003 c 0.0106,-10e-4 0.12393,-0.0139 0.25172,-0.0277 1.61439,-0.17472 3.29648,-0.42324 4.67445,-0.69063 0.73212,-0.14206 2.56147,-0.53682 2.84741,-0.61444 0.0564,-0.0153 0.0585,-0.0148 0.0672,0.0164 0.007,0.0252 0.0103,0.81834 0.004,0.91234 -0.006,0.0862 -0.0111,0.0996 -0.0413,0.10845 -0.14121,0.0413 -1.51125,0.33757 -2.25066,0.48664 -1.40553,0.28335 -3.04166,0.53882 -4.71234,0.7358 -0.28038,0.0331 -0.84099,0.0958 -0.85605,0.0958 -0.002,0 -0.004,-0.2295 -0.004,-0.50999 z"
     id="path13112" /><path
     style="fill:#ff0000;fill-opacity:1;stroke:none;stroke-width:0.0033252;stroke-dasharray:none;stroke-opacity:1"
     d="m 571.02863,101.08168 c 0,-0.004 0.3157,-0.27468 0.70155,-0.60066 4.6832,-3.956563 7.22662,-6.09472 9.84846,-8.27925 1.54849,-1.290206 2.02225,-1.682345 2.03251,-1.682345 0.007,0 0.008,0.09309 0.008,0.662443 l -2.7e-4,0.662442 -0.1884,0.155869 c -0.27721,0.229348 -1.83311,1.524942 -2.22125,1.849633 -0.18416,0.154053 -0.4855,0.406122 -0.66966,0.560154 -0.90053,0.753218 -2.53544,2.126228 -3.71199,3.117346 -1.18203,0.99574 -3.85806,3.254088 -4.13341,3.488258 l -0.0866,0.0737 -0.78945,2.1e-4 c -0.6674,1.8e-4 -0.78945,-10e-4 -0.78945,-0.008 z"
     id="path13114" /><path
     style="fill:#ff0000;fill-opacity:1;stroke:none;stroke-width:0.00517615;stroke-dasharray:none;stroke-opacity:1"
     d="m 557.51476,113.11935 2e-5,-0.66834 0.28081,-0.23434 c 1.22388,-1.02138 4.3074,-3.61022 6.43647,-5.40389 1.5831,-1.33371 5.72365,-4.82844 6.57353,-5.54823 l 0.21118,-0.17886 0.11233,0.005 c 0.0618,0.003 0.40883,0.005 0.77121,0.006 0.64822,4e-5 0.65883,3.2e-4 0.656,0.0176 -0.002,0.0104 -0.36391,0.32254 -0.88803,0.76533 -6.03975,5.10255 -8.51754,7.19021 -11.67779,9.83907 -0.74134,0.62138 -2.42917,2.03249 -2.46003,2.05671 -0.0149,0.0117 -0.0157,-0.021 -0.0157,-0.65601 z"
     id="path13116" /><path
     style="fill:#ff0000;fill-opacity:1;stroke:none;stroke-width:0.00517615;stroke-dasharray:none;stroke-opacity:1"
     d="m 542.08514,125.22979 c 0,-0.007 0.0414,-0.0474 0.0921,-0.089 0.0507,-0.0416 0.52278,-0.42855 1.04916,-0.85986 4.40564,-3.60988 8.95923,-7.37762 13.50784,-11.17667 0.55608,-0.46445 0.73935,-0.61281 0.75699,-0.61281 h 0.0233 l 0.002,0.64783 0.002,0.64783 -1.12779,0.94094 c -3.93361,3.2819 -7.96705,6.61886 -11.78894,9.75326 l -0.92891,0.76181 h -0.79423 c -0.69604,0 -0.79423,-0.002 -0.79423,-0.0133 z"
     id="path13118" /><path
     style="fill:#ff0000;fill-opacity:1;stroke:none;stroke-width:0.00517615;stroke-dasharray:none;stroke-opacity:1"
     d="m 529.32607,135.87848 c 0.002,-0.007 2.43327,-2.05005 5.40372,-4.53919 5.79557,-4.8565 7.30819,-6.1106 7.35872,-6.10105 0.0142,0.003 0.36501,0.005 0.77956,0.005 h 0.75374 v 0.0215 c 0,0.0224 0.0641,-0.0307 -2.12979,1.76308 -0.36822,0.30106 -2.90264,2.41869 -5.63203,4.70584 l -4.96253,4.15844 h -0.78715 c -0.69521,0 -0.78681,-0.002 -0.78424,-0.0135 z"
     id="path13120" /><path
     style="fill:#ff0000;fill-opacity:1;stroke:none;stroke-width:0.00517615;stroke-dasharray:none;stroke-opacity:1"
     d="m 517.59896,145.70742 c 0.002,-0.009 2.63717,-2.22293 5.8567,-4.92072 4.70215,-3.94014 5.85739,-4.90407 5.87249,-4.90002 0.0103,0.003 0.35572,0.005 0.76751,0.005 l 0.74871,1.2e-4 -0.003,0.0247 c -0.002,0.0207 -0.94418,0.8135 -5.83949,4.91551 l -5.83665,4.8908 h -0.78472 c -0.74106,0 -0.78456,-8.3e-4 -0.78171,-0.0156 z"
     id="path13122" /><path
     style="fill:#ff0000;fill-opacity:1;stroke:none;stroke-width:0.00517615;stroke-dasharray:none;stroke-opacity:1"
     d="m 503.1921,157.77909 c 0,-0.0191 14.37407,-12.06065 14.39599,-12.05987 0.01,3.5e-4 0.35987,0.001 0.77751,0.002 0.73544,0.002 0.75935,0.002 0.75935,0.0184 0,0.0114 -2.31333,1.95526 -7.1813,6.03435 l -7.18129,6.01753 h -0.78513 c -0.66976,0 -0.78513,-0.002 -0.78513,-0.0127 z"
     id="path13124" /><path
     style="fill:#ff0000;fill-opacity:1;stroke:none;stroke-width:0.00517615;stroke-dasharray:none;stroke-opacity:1"
     d="m 491.40207,167.65661 c 1.3e-4,-0.0173 11.76239,-9.86944 11.78208,-9.86869 0.009,3.5e-4 0.35662,10e-4 0.77179,0.002 l 0.75486,0.002 v 0.0216 c 0,0.0178 -1.03794,0.89135 -5.86454,4.93577 l -5.86453,4.91414 -0.78988,0.002 c -0.62899,0.002 -0.78985,0 -0.78978,-0.009 z"
     id="path13126" /><path
     style="fill:#ff0000;fill-opacity:1;stroke:none;stroke-width:0.00517615;stroke-dasharray:none;stroke-opacity:1"
     d="m 476.66432,179.98411 c 0,-0.007 0.0839,-0.0808 0.18647,-0.16374 0.50679,-0.40973 1.07707,-0.87993 1.4805,-1.22072 0.12357,-0.10437 1.08601,-0.91149 2.13876,-1.7936 2.64011,-2.21215 5.10892,-4.28083 8.2447,-6.90847 1.46528,-1.22783 2.66833,-2.23247 2.67344,-2.23252 0.005,-5e-5 0.35634,5.4e-4 0.7805,10e-4 0.76334,0.001 0.77118,0.002 0.76834,0.0192 -0.002,0.011 -2.48466,2.09737 -6.48205,5.44692 -3.56355,2.98601 -6.72328,5.63381 -7.02163,5.884 -0.29834,0.25018 -0.68419,0.57316 -0.85744,0.71773 l -0.31498,0.26285 h -0.79831 c -0.69027,0 -0.7983,-0.002 -0.7983,-0.013 z"
     id="path13128" /><path
     style="fill:#ff0000;fill-opacity:1;stroke:none;stroke-width:0.00517615;stroke-dasharray:none;stroke-opacity:1"
     d="m 465.35047,189.74289 c 0,-0.007 0.0329,-0.0508 0.0731,-0.0966 1.07192,-1.22026 2.43312,-2.52718 4.17748,-4.01086 1.05295,-0.8956 2.13641,-1.77305 4.03938,-3.27134 0.23229,-0.1829 0.70947,-0.55859 1.06039,-0.83486 0.6709,-0.52819 1.63835,-1.29546 1.82873,-1.45033 0.0976,-0.0794 0.11571,-0.0908 0.13816,-0.0866 0.0142,0.003 0.36906,0.005 0.78856,0.005 0.87907,0 0.81282,-0.009 0.69307,0.0912 -0.54112,0.45131 -1.64138,1.33111 -3.47099,2.77551 -3.3466,2.642 -4.68401,3.74974 -6.12414,5.07247 -0.60758,0.55805 -1.32828,1.26626 -1.74442,1.71421 l -0.0979,0.10533 -0.68072,2.6e-4 c -0.59779,2.3e-4 -0.68072,-0.001 -0.68072,-0.0132 z"
     id="path13130" /><path
     style="fill:#ff0000;fill-opacity:1;stroke:none;stroke-width:0.00517615;stroke-dasharray:none;stroke-opacity:1"
     d="m 463.51081,199.67502 c -0.80397,-1.22005 -1.18346,-2.50071 -1.13403,-3.82706 0.0369,-0.98904 0.30909,-1.96996 0.84513,-3.04527 0.45734,-0.91742 1.11874,-1.88842 1.95449,-2.86938 l 0.15161,-0.17795 0.68238,6.4e-4 c 0.37531,3.5e-4 0.68419,0.002 0.6864,0.005 0.002,0.002 -0.0175,0.0274 -0.0437,0.056 -0.81081,0.88325 -1.43555,1.67544 -1.93319,2.45135 -0.82083,1.27984 -1.24748,2.42285 -1.32919,3.56102 -0.0139,0.19415 -0.006,0.68374 0.0136,0.8468 0.0709,0.58837 0.21996,1.0853 0.48961,1.6326 0.22246,0.45155 0.46918,0.8319 0.85259,1.31443 0.0768,0.0967 0.14404,0.1787 0.14941,0.18233 0.005,0.004 -0.28374,0.007 -0.64249,0.007 l -0.65226,1.4e-4 -0.0903,-0.13704 z"
     id="path13132" /><path
     style="fill:#ff0000;fill-opacity:1;stroke:none;stroke-width:0.00517615;stroke-dasharray:none;stroke-opacity:1"
     d="m 469.43281,210.04537 c 0.002,-0.006 0.0208,-0.0521 0.0408,-0.10201 0.10513,-0.2627 0.17102,-0.5271 0.21029,-0.84388 0.0175,-0.1411 0.0145,-0.6338 -0.005,-0.79979 -0.0789,-0.67655 -0.25304,-1.26883 -0.57187,-1.94555 -0.51515,-1.09338 -1.41755,-2.35182 -2.54989,-3.55594 -0.54423,-0.57873 -1.09806,-1.11694 -1.93522,-1.88064 -0.6136,-0.55976 -0.61588,-0.56211 -0.85058,-0.87503 -0.0938,-0.12512 -0.12838,-0.17794 -0.12838,-0.19633 v -0.0251 l 0.27633,-0.001 c 0.15199,-5.6e-4 0.44213,-0.004 0.64478,-0.007 l 0.36844,-0.006 0.29171,0.2651 c 1.04737,0.9518 1.68597,1.57935 2.35956,2.31872 1.34521,1.47655 2.22628,2.81042 2.70738,4.09875 0.21913,0.58682 0.33838,1.08342 0.38416,1.59989 0.0164,0.18544 0.0186,0.58828 0.004,0.76233 -0.032,0.38196 -0.1071,0.76382 -0.21751,1.10532 l -0.0305,0.0944 -0.50154,0.002 c -0.40016,0.002 -0.50063,0 -0.49704,-0.009 z"
     id="path13134" /><path
     style="fill:#ff0000;fill-opacity:1;stroke:none;stroke-width:0.00517615;stroke-dasharray:none;stroke-opacity:1"
     d="m 457.99063,215.4214 c 0,-0.28667 10e-4,-0.52121 0.003,-0.52121 0.0232,0 0.83774,-0.11789 1.14979,-0.16641 3.52085,-0.54741 6.24071,-1.36943 7.99085,-2.41506 1.09986,-0.65712 1.83689,-1.3611 2.22521,-2.12544 l 0.0698,-0.13734 0.49641,4.4e-4 c 0.27303,2.4e-4 0.49766,0.002 0.49917,0.003 0.004,0.004 -0.0652,0.18448 -0.11883,0.31189 -0.0238,0.0566 -0.0828,0.18179 -0.13104,0.27817 -0.49612,0.99113 -1.34127,1.85239 -2.49927,2.54693 -0.50079,0.30036 -1.11735,0.6084 -1.72217,0.86041 -1.85393,0.77248 -4.21163,1.35887 -7.1631,1.78155 -0.34228,0.049 -0.75556,0.10409 -0.78115,0.10409 h -0.0186 z"
     id="path13136" /><path
     style="fill:#ff0000;fill-opacity:1;stroke:none;stroke-width:0.00517615;stroke-dasharray:none;stroke-opacity:1"
     d="m 443.45068,216.29019 v -0.51671 l 0.0741,-0.005 c 0.0408,-0.003 0.16714,-0.007 0.28082,-0.01 0.51719,-0.0124 2.03929,-0.0575 2.88912,-0.0856 3.25877,-0.1078 6.50257,-0.28637 8.57749,-0.4722 0.85768,-0.0768 2.41561,-0.24905 2.68918,-0.29731 l 0.0292,-0.005 v 0.52481 0.52481 l -0.34822,0.0425 c -1.29898,0.15845 -2.77807,0.2945 -4.21686,0.38786 -2.91725,0.18931 -5.37664,0.29801 -9.04478,0.39977 -0.35092,0.01 -0.70375,0.0202 -0.78406,0.0233 l -0.14603,0.006 z"
     id="path13138" /><path
     style="fill:#ff0000;fill-opacity:1;stroke:none;stroke-width:0.00517615;stroke-dasharray:none;stroke-opacity:1"
     d="m 431.28312,217.62466 v -0.52859 l 0.47404,-0.11837 c 1.65029,-0.41211 3.13804,-0.67043 4.92228,-0.85469 1.46914,-0.15171 3.04555,-0.24156 5.6075,-0.31959 0.84538,-0.0257 1.04247,-0.0314 1.10308,-0.0315 l 0.0607,-1e-4 v 0.51563 0.51562 l -0.17299,0.006 c -0.0951,0.003 -0.3772,0.0118 -0.6268,0.0191 -3.25688,0.0949 -4.91561,0.19665 -6.66789,0.40907 -1.5298,0.18545 -3.11949,0.49257 -4.53646,0.87641 -0.0806,0.0218 -0.15039,0.0397 -0.15501,0.0397 -0.005,0 -0.008,-0.20656 -0.008,-0.52859 z"
     id="path13140" /><path
     style="fill:#ff0000;fill-opacity:1;stroke:none;stroke-width:0.00517615;stroke-dasharray:none;stroke-opacity:1"
     d="m 415.28738,224.75089 v -0.59317 l 0.21342,-0.11881 c 1.89765,-1.05642 3.56,-1.93962 5.06594,-2.69153 0.59886,-0.299 0.65977,-0.32747 0.70063,-0.32747 0.0408,0 0.0484,-0.004 0.0855,-0.0396 0.033,-0.0321 0.0905,-0.0632 0.30135,-0.16291 3.73798,-1.7682 6.69102,-2.91704 9.39969,-3.6568 0.11823,-0.0323 0.21817,-0.0587 0.22209,-0.0587 0.004,0 0.007,0.23758 0.007,0.52795 l -9e-5,0.52795 -0.19091,0.0532 c -2.5125,0.69994 -5.30522,1.79565 -8.91664,3.4984 -1.66193,0.78359 -3.75728,1.88408 -6.43424,3.3793 -0.20759,0.11595 -0.39462,0.22085 -0.41562,0.23312 l -0.0382,0.0223 z"
     id="path13868" /><path
     style="fill:#ff0000;fill-opacity:1;stroke:none;stroke-width:0.00517615;stroke-dasharray:none;stroke-opacity:1"
     d="m 404.85419,230.84348 v -0.60868 l 0.32576,-0.19444 c 0.17917,-0.10695 0.58254,-0.34775 0.89639,-0.53512 2.93147,-1.75009 5.6108,-3.31403 7.85859,-4.5871 0.94681,-0.53624 1.30623,-0.73503 1.32898,-0.73503 h 0.0236 l -0.002,0.5809 -0.002,0.5809 -0.34148,0.19266 c -2.47813,1.3982 -5.66477,3.26252 -9.19081,5.37703 l -0.8964,0.53755 z"
     id="path13870" /><path
     style="fill:#ff0000;fill-opacity:1;stroke:none;stroke-width:0.00517615;stroke-dasharray:none;stroke-opacity:1"
     d="m 389.84695,239.97402 v -0.61101 l 1.09858,-0.67192 c 4.6087,-2.81878 7.02668,-4.29442 8.83136,-5.38959 0.35833,-0.21745 0.83147,-0.50457 1.05141,-0.63803 0.88465,-0.5368 2.90555,-1.75615 3.75321,-2.26459 0.12928,-0.0775 0.24352,-0.14098 0.25387,-0.14098 h 0.0188 v 0.59686 0.59686 l -0.68521,0.41272 c -2.89047,1.74105 -5.34182,3.23238 -11.3745,6.91994 -1.58902,0.97131 -2.90226,1.77383 -2.91833,1.78338 l -0.0292,0.0174 z"
     id="path13872" /><path
     style="fill:#ff0000;fill-opacity:1;stroke:none;stroke-width:0.00517615;stroke-dasharray:none;stroke-opacity:1"
     d="m 373.37514,249.91388 2.1e-4,-0.60037 0.31206,-0.18402 c 2.27467,-1.34135 5.85347,-3.48927 9.11422,-5.47015 1.81779,-1.10429 3.31701,-2.01795 5.4727,-3.3352 0.83776,-0.51192 1.53431,-0.93242 1.5479,-0.93444 l 0.0247,-0.004 -3.2e-4,0.60086 -3.1e-4,0.60086 -0.39734,0.2419 c -0.21853,0.13304 -0.73499,0.44806 -1.14769,0.70004 -5.83877,3.56497 -10.27721,6.24089 -13.89743,8.37871 -0.47648,0.28137 -0.98212,0.57917 -1.0222,0.60202 -0.004,0.002 -0.007,-0.26632 -0.007,-0.59653 z"
     id="path13874" /><path
     style="fill:#ff0000;fill-opacity:1;stroke:none;stroke-width:0.00517615;stroke-dasharray:none;stroke-opacity:1"
     d="m 358.06432,258.17797 0.002,-0.56745 0.1348,-0.0609 c 2.61559,-1.18068 3.14421,-1.42802 3.78326,-1.77015 3.03561,-1.62516 6.72544,-3.7163 10.95184,-6.20675 0.22101,-0.13024 0.40998,-0.23679 0.41992,-0.23679 0.0179,0 0.0181,0.005 0.0178,0.59085 l -2.4e-4,0.59086 -0.0872,0.05 c -0.048,0.0275 -0.26309,0.15333 -0.47809,0.27957 -3.87677,2.27634 -7.42246,4.27907 -10.36787,5.85614 -0.65454,0.35046 -1.31001,0.65742 -3.75422,1.75814 -0.32621,0.1469 -0.60021,0.27086 -0.60889,0.27547 -0.015,0.008 -0.0157,-0.0201 -0.0135,-0.55908 z"
     id="path13876" /><path
     style="fill:#ff0000;fill-opacity:1;stroke:none;stroke-width:0.576;stroke-dasharray:none;stroke-opacity:1"
     d="m 349.38672,262.92969 0.14453,-0.10157 z"
     id="path14660" /><path
     style="fill:#000000;fill-opacity:1;stroke:none;stroke-width:0.576;stroke-dasharray:none;stroke-opacity:1"
     d="m 349.38281,262.9375 0.14453,-0.10547 0.41797,0.008 0.16016,0.75782 z"
     id="path14988" /><path
     style="fill:#ff0000;fill-opacity:1;stroke:none;stroke-width:0.00225;stroke-dasharray:none;stroke-opacity:1"
     d="m 347.14274,266.22363 c 10e-4,-0.006 0.0107,-0.0688 0.0215,-0.13965 0.0933,-0.61298 0.2213,-1.23332 0.35547,-1.72257 0.23877,-0.87074 0.55005,-1.51023 0.96785,-1.98836 0.22882,-0.26187 0.41051,-0.40246 0.81124,-0.62773 0.4619,-0.25966 0.91584,-0.49658 1.53941,-0.80344 1.19342,-0.58728 2.61471,-1.24936 4.99373,-2.32622 l 0.1347,-0.061 h 0.0343 0.0343 l -9.9e-4,0.55304 -9.9e-4,0.55305 -0.38281,0.17381 c -2.13655,0.97004 -3.52941,1.6235 -4.58789,2.15241 -0.62931,0.31446 -0.9934,0.50765 -1.2591,0.6681 -0.11103,0.067 -0.31313,0.19644 -0.31903,0.20425 -10e-4,10e-4 -0.0227,0.0178 -0.0481,0.0363 -0.15196,0.11106 -0.34865,0.39054 -0.52018,0.73912 -0.26405,0.53661 -0.47821,1.22551 -0.62903,2.02345 -0.0248,0.13132 -0.0817,0.46493 -0.0922,0.54002 l -0.005,0.0361 h -0.52454 -0.52455 z"
     id="path14990" /><path
     style="fill:#ff0000;fill-opacity:1;stroke:none;stroke-width:0.00225;stroke-dasharray:none;stroke-opacity:1"
     d="m 356.03607,259.10352 0.001,-0.54883 h -0.009 c -0.008,0 -0.009,-0.002 -0.008,-0.0124 l 0.001,-0.0124 0.38868,-0.17552 c 1.39043,-0.62791 1.62827,-0.73472 1.63957,-0.7363 l 0.0126,-0.002 0.001,0.55608 c 6.9e-4,0.30585 0.002,0.5594 0.003,0.56345 0.002,0.006 -0.0366,0.0246 -0.2795,0.13401 -0.44509,0.20042 -0.99724,0.44933 -1.38127,0.62269 -0.19465,0.0879 -0.35772,0.15976 -0.36237,0.15976 h -0.008 z"
     id="path14994" /><path
     style="fill:#ff0000;fill-opacity:1;stroke:none;stroke-width:0.00225;stroke-dasharray:none;stroke-opacity:1"
     d="m 346.77562,271.24121 c 10e-4,-0.0199 0.005,-0.13809 0.01,-0.26269 0.0687,-2.00453 0.18173,-3.53641 0.34378,-4.65769 0.006,-0.0438 0.0115,-0.0811 0.0115,-0.083 0,-0.002 0.22403,-0.003 0.52344,-0.003 0.46322,0 0.52344,6.8e-4 0.52344,0.006 0,0.003 -0.005,0.0406 -0.0115,0.083 -0.16614,1.10927 -0.28205,2.61659 -0.34972,4.54783 -0.0117,0.33487 -0.0137,0.39268 -0.0137,0.39942 0,0.006 -0.0273,0.007 -0.51943,0.007 h -0.51942 z"
     id="path14996" /><path
     style="fill:#ff0000;fill-opacity:1;stroke:none;stroke-width:0.00225;stroke-dasharray:none;stroke-opacity:1"
     d="m 346.56812,276.99512 c 0.007,-0.0847 0.0323,-0.53074 0.047,-0.83106 0.037,-0.75999 0.06,-1.42598 0.10564,-3.06445 0.0256,-0.91742 0.0395,-1.38952 0.0513,-1.74121 l 0.003,-0.0772 0.41835,-4.7e-4 c 0.2301,-2.6e-4 0.46362,-0.002 0.51895,-0.003 l 0.10059,-0.002 -3e-5,0.01 c -2e-5,0.005 -0.002,0.0607 -0.004,0.12304 -0.008,0.25178 -0.0228,0.77953 -0.0469,1.72852 -0.0204,0.80062 -0.0349,1.32439 -0.047,1.68555 -0.0284,0.854 -0.0571,1.47784 -0.0962,2.09472 l -0.007,0.10645 h -0.52301 -0.523 z"
     id="path15724" /><path
     style="fill:#ff0000;fill-opacity:1;stroke:none;stroke-width:0.00225;stroke-dasharray:none;stroke-opacity:1"
     d="m 345.55178,282.3877 c 10e-4,-0.004 0.0198,-0.062 0.0416,-0.1295 0.31823,-0.98339 0.57517,-2.02963 0.73638,-2.99843 0.0838,-0.50361 0.14919,-1.07273 0.20333,-1.76954 0.008,-0.10771 0.0333,-0.45149 0.0333,-0.45996 10e-6,-0.002 0.23468,-0.003 0.5215,-0.003 h 0.52148 v 0.017 c 0,0.0238 -0.0245,0.35828 -0.041,0.55861 -0.0412,0.50281 -0.0934,0.98492 -0.1505,1.3912 -0.14233,1.01281 -0.39721,2.15071 -0.72274,3.22656 -0.024,0.0795 -0.0455,0.15113 -0.0477,0.15918 l -0.004,0.0146 h -0.54685 c -0.51894,0 -0.54676,-3.5e-4 -0.54495,-0.007 z"
     id="path15726" /><path
     style="fill:#ff0000;fill-opacity:1;stroke:none;stroke-width:0.00225;stroke-dasharray:none;stroke-opacity:1"
     d="m 342.85547,288.04856 c 0,-0.001 0.029,-0.0487 0.0646,-0.10554 0.36965,-0.59159 0.70437,-1.17496 1.03866,-1.81021 0.0822,-0.15619 0.34163,-0.67368 0.41915,-0.83606 0.43774,-0.91692 0.79902,-1.80153 1.10436,-2.70406 l 0.0671,-0.19832 0.54441,1.2e-4 c 0.29942,7e-5 0.54513,8.5e-4 0.54602,0.002 0.004,0.004 -0.17903,0.56534 -0.26844,0.82057 -0.45434,1.29682 -1.01461,2.56163 -1.68884,3.8125 -0.16065,0.29805 -0.32945,0.59777 -0.50764,0.90136 l -0.0705,0.12012 h -0.62441 c -0.34343,0 -0.62442,-10e-4 -0.62442,-0.002 z"
     id="path16454" /><path
     style="fill:#ff0000;fill-opacity:1;stroke:none;stroke-width:0.00225;stroke-dasharray:none;stroke-opacity:1"
     d="m 339.23437,292.69411 c 0,-0.003 0.0214,-0.0279 0.0475,-0.0557 0.74479,-0.79265 1.38017,-1.53746 2.02088,-2.36892 0.51991,-0.67468 1.06265,-1.44973 1.5136,-2.16145 l 0.0367,-0.0579 0.62326,0.003 c 0.3428,0.002 0.62356,0.003 0.62391,0.003 9e-4,6.6e-4 -0.0911,0.15376 -0.17751,0.29539 -0.90063,1.47628 -1.97162,2.92653 -3.14071,4.25293 l -0.0835,0.0947 h -0.73208 c -0.60015,0 -0.73209,-9.2e-4 -0.73209,-0.005 z"
     id="path16456" /><path
     style="fill:#ff0000;fill-opacity:1;stroke:none;stroke-width:0.00225;stroke-dasharray:none;stroke-opacity:1"
     d="m 333.99609,297.25614 v -0.11105 l 0.11036,-0.0759 c 0.85157,-0.58569 1.71235,-1.24127 2.49316,-1.89883 0.92293,-0.77725 1.75908,-1.56366 2.60156,-2.44681 l 0.0234,-0.0246 0.73409,1.6e-4 c 0.40375,8e-5 0.73485,9.1e-4 0.73578,0.002 0.003,0.003 -0.31826,0.35863 -0.53399,0.58991 -0.43024,0.46124 -0.94807,0.98324 -1.40677,1.41808 -0.97046,0.92 -2.01282,1.79353 -3.08492,2.58526 l -0.0988,0.0729 h -0.78697 -0.78696 z"
     id="path16458" /><path
     style="fill:#ff0000;fill-opacity:1;stroke:none;stroke-width:0.00225;stroke-dasharray:none;stroke-opacity:1"
     d="m 329.55083,300.27837 4e-5,-0.59282 0.0498,-0.0233 c 0.0274,-0.0128 0.12886,-0.0614 0.22554,-0.10797 1.37162,-0.66069 2.67348,-1.4059 3.95139,-2.26184 0.14426,-0.0966 0.20048,-0.13227 0.20861,-0.13227 h 0.0111 l -0.003,0.10351 -0.003,0.10352 h 0.77747 0.77746 l -1.3e-4,0.009 c -1.5e-4,0.009 -0.002,0.0106 -0.2733,0.20557 -1.68147,1.20677 -3.50774,2.2703 -5.38867,3.1381 -0.14104,0.0651 -0.29118,0.13337 -0.32129,0.14616 l -0.0127,0.005 z"
     id="path16460" /><path
     style="fill:#ff0000;fill-opacity:1;stroke:none;stroke-width:0.0362235;stroke-dasharray:none;stroke-opacity:1"
     d="m 257.99909,336.84398 c 0.48813,-1.17109 0.73224,-2.17723 1.22442,-5.04676 0.57105,-3.32935 1.00734,-5.19764 1.73612,-7.43454 0.72827,-2.23533 1.47664,-3.93223 2.32272,-5.26666 2.50719,-3.95431 7.94432,-8.98709 14.30539,-13.24153 4.00231,-2.67684 7.27713,-4.28968 10.85083,-5.34401 2.59495,-0.76558 4.97024,-1.11181 7.63825,-1.11339 3.22746,-0.002 5.39046,0.34146 10.95561,1.73918 4.4896,1.12759 5.81034,1.36551 8.21922,1.48062 4.11173,0.19648 8.43223,-0.53595 12.4264,-2.10659 0.55342,-0.21762 1.19828,-0.48278 1.43304,-0.58924 l 0.42684,-0.19357 -0.0181,0.57273 -0.0181,0.57273 -0.91187,0.37417 c -2.71397,1.11364 -5.77544,1.8908 -8.74845,2.22082 -1.23781,0.1374 -4.17469,0.19095 -5.40136,0.0985 -2.14443,-0.16166 -3.73258,-0.46553 -7.77202,-1.48705 -5.74755,-1.45349 -7.24791,-1.69242 -10.62272,-1.69167 -1.7845,3.9e-4 -2.21631,0.0197 -3.08152,0.13805 -4.96472,0.67892 -9.45272,2.53453 -14.84157,6.13639 -6.21064,4.15114 -11.64011,9.20404 -14.10455,13.1263 -0.56481,0.89892 -1.04572,1.90057 -1.52088,3.16773 -1.03394,2.75728 -1.5606,4.81834 -2.23503,8.74673 -0.47296,2.75483 -0.69698,3.73777 -1.10721,4.8581 l -0.14393,0.39305 h -0.52873 c -0.47911,0 -0.52443,-0.0103 -0.48287,-0.11006 z"
     id="path16464" /><path
     style="fill:#0000ff;fill-opacity:1;stroke:none;stroke-width:0.0111729;stroke-dasharray:none;stroke-opacity:1"
     d="m 337.61055,310.41843 v -0.55704 l 0.63526,-0.30717 c 1.43464,-0.6937 3.08735,-1.55201 4.51473,-2.34466 5.52561,-3.0685 10.45766,-6.60806 15.10007,-10.83679 2.31803,-2.11147 4.76849,-4.60596 6.98458,-7.11007 2.83718,-3.20593 4.65365,-5.52576 9.17382,-11.71599 0.94207,-1.29014 2.1748,-2.97344 2.71674,-3.70974 l 0.26056,-0.354 h 0.6379 c 0.50759,0 0.63398,0.005 0.61876,0.0242 -0.0105,0.0133 -0.27626,0.37339 -0.59053,0.80014 -0.57115,0.77554 -0.7965,1.08346 -2.683,3.66609 -4.84886,6.63808 -6.78133,9.08889 -9.9111,12.56947 -2.09073,2.32507 -4.47447,4.72279 -6.6657,6.70476 -4.15274,3.75616 -8.53397,6.97472 -13.34071,9.80042 -2.22063,1.30543 -4.55262,2.53965 -7.12816,3.77264 l -0.32322,0.15474 z"
     id="path16604" /><path
     style="fill:#0000ff;fill-opacity:1;stroke:none;stroke-width:0.020395;stroke-dasharray:none;stroke-opacity:1"
     d="m 50.740768,371.93591 0.0011,-0.55892 3.052863,-1.37153 c 15.067099,-6.76909 24.076538,-10.72793 33.20279,-14.58966 10.721778,-4.53687 20.110159,-8.2405 27.167899,-10.7175 l 0.89295,-0.31339 0.0177,0.519 c 0.01,0.28545 0.004,0.52908 -0.013,0.54139 -0.0169,0.0123 -0.33559,0.12979 -0.70816,0.26107 -11.53951,4.0659 -27.20361,10.5306 -48.894113,20.17899 -4.591713,2.04249 -14.44727,6.46402 -14.659092,6.57656 -0.05781,0.0307 -0.06189,-0.005 -0.06088,-0.52601 z"
     id="path16606" /><path
     style="fill:#0000ff;fill-opacity:1;stroke:none;stroke-width:0.0110316;stroke-dasharray:none;stroke-opacity:1"
     d="m 4.1270956,418.06456 c -1.515785,-2.01668 -2.615611,-4.39702 -3.16779704,-6.85602 -0.32480935,-1.44645 -0.46220117,-2.70546 -0.46245693,-4.23779 -2.0616e-4,-1.23524 0.0831945,-2.2643 0.28081469,-3.46493 0.61668818,-3.74665 1.98537598,-6.81284 4.18155558,-9.36768 2.0192708,-2.34904 4.6449115,-4.24697 8.5812631,-6.20293 1.660347,-0.82501 2.868084,-1.36299 6.731933,-2.9987 2.74503,-1.16207 5.137063,-2.20197 8.916154,-3.87616 l 0.719089,-0.31857 1.243993,0.005 1.24399,0.005 -1.99181,0.88458 c -4.147765,1.84204 -6.696946,2.95291 -9.690919,4.22306 -3.518624,1.49271 -4.759264,2.04185 -6.322047,2.79827 -4.742363,2.29542 -7.7360605,4.60768 -9.7499246,7.53062 -0.9667548,1.40315 -1.7432972,3.07033 -2.2553488,4.84207 -0.066437,0.22988 -0.1305052,0.42767 -0.142373,0.43954 -0.011868,0.0119 -0.021578,0.0489 -0.021578,0.0823 0,0.0334 -0.05112,0.27086 -0.1136008,0.52764 -0.3276927,1.34672 -0.5182859,2.62435 -0.5949476,3.98817 -0.024569,0.43709 -0.024524,1.62892 7.66e-5,2.05193 0.066318,1.14032 0.224001,2.2123 0.4789183,3.25584 0.6171788,2.52653 1.8135307,4.87113 3.491211,6.84206 l 0.1507974,0.17716 H 5.0047499 4.3754108 l -0.2483162,-0.33037 z"
     id="path16610" /><path
     style="fill:#0000ff;fill-opacity:1;stroke:none;stroke-width:0.0121015;stroke-dasharray:none;stroke-opacity:1"
     d="m 30.02738,380.71046 c 0.0045,-0.0136 0.631661,-0.30232 1.393634,-0.64166 3.015415,-1.34289 6.275483,-2.8083 14.33548,-6.44386 2.731545,-1.23209 4.969391,-2.23723 4.972992,-2.23362 0.0036,0.004 0.0094,0.25229 0.01282,0.55264 l 0.0063,0.5461 -1.008458,0.45484 c -0.554653,0.25016 -2.426604,1.09468 -4.159892,1.87672 -4.302819,1.94138 -8.935615,4.02675 -10.756892,4.84204 -0.831979,0.37243 -1.710537,0.76587 -1.952352,0.87432 l -0.439664,0.19717 h -1.206084 c -0.914444,0 -1.204095,-0.006 -1.197857,-0.0247 z"
     id="path16612" /><path
     style="fill:#0000ff;fill-opacity:1;stroke:none;stroke-width:0.00424714;stroke-dasharray:none;stroke-opacity:1"
     d="m 20.999755,426.18085 c -2.825732,-0.0973 -5.443404,-0.60265 -7.922836,-1.52956 -1.150213,-0.43 -2.282469,-0.96927 -3.3322323,-1.58707 -1.928783,-1.13512 -3.6380991,-2.5779 -5.0284236,-4.24433 -0.168011,-0.20138 -0.3363985,-0.41114 -0.3363985,-0.41906 0,-0.003 0.2830644,-0.006 0.629032,-0.008 l 0.6290319,-0.002 0.1134257,0.12775 c 0.4180822,0.47085 0.9488301,1.0021 1.4269068,1.42826 1.6677837,1.48668 3.610166,2.67796 5.806489,3.56118 2.555505,1.02766 5.4119,1.59087 8.368934,1.65014 l 0.07742,0.002 0.0019,0.51431 0.0019,0.5143 -0.134616,-10e-4 c -0.07404,-6.3e-4 -0.209274,-0.004 -0.300521,-0.007 z"
     id="path16614" /><path
     style="fill:#0000ff;fill-opacity:1;stroke:none;stroke-width:0.00701707;stroke-dasharray:none;stroke-opacity:1"
     d="m 21.441035,425.6812 v -0.51154 l 0.691352,-0.007 c 1.19829,-0.013 2.095647,-0.0725 3.250817,-0.21574 5.938402,-0.73629 11.952241,-3.31608 17.608508,-7.55363 1.202492,-0.90088 1.779156,-1.39949 2.741775,-2.37063 0.652177,-0.65795 1.334291,-1.40477 2.014977,-2.2061 l 0.15781,-0.18579 h 0.618777 0.618776 v 0.0984 0.0984 l -0.09413,0.11171 c -0.980675,1.16392 -1.880143,2.14173 -2.775459,3.01722 -0.735669,0.71938 -1.348744,1.25272 -2.137384,1.85943 -3.31591,2.55092 -6.74352,4.53805 -10.257586,5.94673 -3.392899,1.3601 -6.850294,2.16576 -10.178401,2.37182 -0.60961,0.0377 -0.804983,0.0443 -1.525846,0.0514 l -0.73399,0.007 z"
     id="path16616" /><path
     style="fill:#0000ff;fill-opacity:1;stroke:none;stroke-width:0.0169539;stroke-dasharray:none;stroke-opacity:1"
     d="m 49.154633,412.68061 v -0.076 h -0.588678 c -0.323773,0 -0.588679,-0.0105 -0.588679,-0.0233 0,-0.0128 0.154088,-0.2082 0.342417,-0.43415 0.957061,-1.14828 2.111106,-2.62292 4.248946,-5.42932 3.801297,-4.99005 5.143235,-6.69824 7.179717,-9.13923 3.264388,-3.91279 6.61571,-7.41216 9.867434,-10.30332 1.46327,-1.30101 3.110011,-2.65105 4.569367,-3.74608 l 0.556226,-0.41736 h 0.834526 c 0.458989,0 0.834526,0.006 0.834526,0.0124 0,0.007 -0.188745,0.1483 -0.419433,0.31444 -2.08103,1.49876 -4.391374,3.38195 -6.407998,5.22324 -1.80409,1.64724 -3.78322,3.63051 -5.535977,5.54756 -2.901973,3.174 -5.320911,6.15206 -9.74157,11.99329 -1.121807,1.4823 -2.424874,3.18721 -2.96952,3.88528 -1.005922,1.28927 -2.099265,2.63846 -2.154657,2.65886 -0.01466,0.005 -0.02665,-0.0244 -0.02665,-0.0662 z"
     id="path16618" /><path
     style="fill:#0000ff;fill-opacity:1;stroke:none;stroke-width:0.0169539;stroke-dasharray:none;stroke-opacity:1"
     d="m 74.828219,383.07543 c 0.02179,-0.0654 1.480627,-1.10226 2.62712,-1.86725 3.234792,-2.1584 6.759527,-4.07496 10.307848,-5.60485 6.938407,-2.99155 14.423233,-4.79255 22.613983,-5.44136 4.17663,-0.33085 8.25781,-0.26109 13.77076,0.23538 0.53994,0.0486 1.10287,0.10117 1.25094,0.11678 0.14807,0.0156 0.27915,0.0286 0.29129,0.0289 0.0121,2.8e-4 0.0221,0.23859 0.0221,0.52958 v 0.52908 l -0.0809,-0.0142 c -0.13673,-0.024 -1.8762,-0.1842 -3.00961,-0.27724 -2.847,-0.23372 -4.86349,-0.32454 -7.21131,-0.32478 -2.85132,-3.1e-4 -5.30074,0.15481 -8.38867,0.53124 -11.264982,1.37324 -21.190304,5.07787 -30.013916,11.20271 l -0.565291,0.39239 h -0.813197 c -0.632352,0 -0.810502,-0.008 -0.801077,-0.0364 z"
     id="path16620" /><path
     style="fill:#0000ff;fill-opacity:1;stroke:none;stroke-width:0.0169539;stroke-dasharray:none;stroke-opacity:1"
     d="m 140.38504,372.82189 c -3.10251,-0.0758 -5.40108,-0.25425 -11.35494,-0.88146 -1.76097,-0.18551 -3.22788,-0.33729 -3.25981,-0.33729 -0.0556,0 -0.0581,-0.0221 -0.0581,-0.53258 v -0.53257 l 0.13981,0.0175 c 0.0769,0.01 0.34511,0.0378 0.59604,0.0628 0.25092,0.0249 1.51584,0.15719 2.81093,0.2939 5.2148,0.55047 6.92694,0.69629 9.90452,0.84357 0.98707,0.0488 4.24643,0.0487 5.1215,-1.6e-4 4.31963,-0.2413 8.61864,-0.88813 12.56305,-1.89026 0.50707,-0.12882 0.92791,-0.23422 0.93521,-0.23422 0.007,0 0.01,0.23414 0.005,0.52033 l -0.008,0.52033 -0.54452,0.14194 c -2.08391,0.54322 -4.7026,1.05671 -7.01999,1.37653 -2.06015,0.28432 -4.42023,0.51017 -6.1662,0.59009 -0.66988,0.0307 -3.02033,0.0573 -3.66473,0.0416 z"
     id="path16622" /><path
     style="fill:#0000ff;fill-opacity:1;stroke:none;stroke-width:0.0169539;stroke-dasharray:none;stroke-opacity:1"
     d="m 197.76645,384.93376 c -4.56378,-1.34633 -8.04139,-3.5313 -11.05484,-6.94572 -0.93208,-1.0561 -1.70483,-2.06405 -3.19132,-4.16264 -1.77674,-2.50836 -2.30102,-3.17209 -3.2801,-4.15251 -0.8739,-0.87511 -1.59125,-1.40536 -2.54343,-1.88006 -1.08647,-0.54164 -2.22747,-0.84451 -3.61774,-0.96029 -0.54449,-0.0453 -2.13344,-0.0192 -2.71479,0.0446 -2.56893,0.28207 -5.16279,0.94857 -8.71243,2.23866 -1.08803,0.39543 -2.4173,0.84315 -3.22302,1.08556 -0.49323,0.14839 -1.58746,0.45991 -1.61547,0.45991 -0.01,0 -0.0181,-0.23517 -0.0181,-0.52261 v -0.52262 l 0.41943,-0.11514 c 1.14762,-0.31503 2.68339,-0.81844 4.2017,-1.37725 5.62953,-2.07198 9.89159,-2.75624 13.14224,-2.10994 2.75828,0.54841 4.85124,1.99295 7.09627,4.89775 0.42931,0.55548 0.76111,1.01261 1.7242,2.37552 2.00337,2.83505 2.73691,3.75679 4.05587,5.09647 1.67308,1.69938 3.30884,2.89035 5.41683,3.94395 1.32362,0.66156 2.62077,1.17158 4.00302,1.57395 l 0.39735,0.11566 0.008,0.51872 c 0.007,0.48054 0.004,0.5186 -0.0442,0.517 -0.0287,-9.5e-4 -0.231,-0.0545 -0.44955,-0.11895 z"
     id="path16624" /><path
     style="fill:#0000ff;fill-opacity:1;stroke:none;stroke-width:0.0169539;stroke-dasharray:none;stroke-opacity:1"
     d="m 203.88871,385.89044 c -2.1954,-0.12017 -3.44817,-0.28787 -5.06999,-0.6787 l -0.55189,-0.133 v -0.53039 c 0,-0.41222 0.008,-0.52726 0.0368,-0.51629 0.0202,0.008 0.24872,0.0681 0.50774,0.13416 1.22036,0.31109 2.50789,0.51193 4.03244,0.62903 0.66646,0.0512 3.45728,0.0514 4.17962,3.5e-4 0.90658,-0.0641 1.56089,-0.12355 2.35471,-0.21396 6.26797,-0.71383 14.05992,-2.92959 21.98203,-6.25093 0.56243,-0.23579 1.02876,-0.42872 1.0363,-0.42872 0.008,0 0.0137,0.24382 0.0137,0.54182 v 0.54182 l -0.43415,0.18359 c -1.32143,0.5588 -1.47807,0.61654 -1.67261,0.61654 -0.18,0 -0.18544,0.002 -0.19449,0.0807 -0.009,0.0769 -0.0513,0.0973 -0.89233,0.42848 -7.09189,2.79304 -13.42932,4.55731 -18.88808,5.25825 -1.03624,0.13306 -1.85896,0.21241 -3.08434,0.29749 -0.42374,0.0294 -2.98894,0.0598 -3.35546,0.0397 z"
     id="path16626" /><path
     style="fill:#0000ff;fill-opacity:1;stroke:none;stroke-width:0.0169539;stroke-dasharray:none;stroke-opacity:1"
     d="m 232.41017,378.4367 v -0.55104 l 0.19868,-0.0853 c 0.54084,-0.23221 1.90117,-0.84152 2.58282,-1.15689 9.065,-4.19397 16.6628,-9.16727 23.88562,-15.63486 3.26744,-2.92578 5.93767,-5.5885 11.67055,-11.63773 l 1.94264,-2.04984 0.49301,-4.4e-4 0.49302,-4.4e-4 v 0.21524 0.21525 l -0.66962,0.70538 c -5.33667,5.62166 -5.82717,6.13092 -7.8789,8.18007 -3.78272,3.77798 -6.98635,6.64774 -10.43635,9.34871 -3.9602,3.10041 -8.29656,5.95109 -12.78904,8.40738 -2.64266,1.4449 -5.7156,2.94944 -8.52111,4.17203 -0.39662,0.17284 -0.77743,0.33884 -0.84623,0.36889 l -0.12509,0.0546 z"
     id="path16628" /><path
     style="fill:#0000ff;fill-opacity:1;stroke:none;stroke-width:0.0169539;stroke-dasharray:none;stroke-opacity:1"
     d="m 273.67651,347.51148 v -0.19132 h -0.47339 c -0.29533,0 -0.46971,-0.0108 -0.46359,-0.0288 0.0306,-0.0899 3.1073,-3.25284 4.79729,-4.93191 2.24429,-2.2298 3.93841,-3.8187 5.8676,-5.50318 6.3246,-5.52235 12.93622,-9.92072 20.49442,-13.63385 l 1.09746,-0.53916 1.16895,0.008 1.16894,0.008 -0.13245,0.0626 c -0.0728,0.0344 -0.52319,0.24406 -1.00075,0.46589 -1.0203,0.47392 -3.60483,1.75464 -4.48868,2.22429 -7.58915,4.03263 -13.88261,8.54701 -20.35355,14.59988 -2.03625,1.9047 -5.09409,4.96577 -7.44491,7.45279 -0.10329,0.10928 -0.19895,0.19868 -0.21257,0.19868 -0.0136,0 -0.0248,-0.0861 -0.0248,-0.19132 z"
     id="path16630" /><path
     style="fill:#0000ff;fill-opacity:1;stroke:none;stroke-width:0.0169539;stroke-dasharray:none;stroke-opacity:1"
     d="m 306.23544,322.69097 c -0.85486,-0.006 -1.09606,-0.0158 -1.08665,-0.044 0.0272,-0.0816 2.89386,-1.37554 4.90804,-2.21542 3.07273,-1.28126 5.70359,-2.2549 9.86036,-3.64913 7.49287,-2.5132 12.34256,-4.40089 17.34699,-6.75211 0.1757,-0.0826 0.32471,-0.1501 0.33113,-0.1501 0.006,0 0.0117,0.24548 0.0117,0.5455 v 0.54549 l -0.28698,0.13402 c -5.02688,2.34755 -9.79807,4.19561 -17.50582,6.78064 -3.14621,1.05518 -4.95314,1.70766 -7.35848,2.65713 -1.3936,0.5501 -3.34865,1.36901 -4.45114,1.86444 -0.23919,0.10748 -0.48787,0.21699 -0.55262,0.24334 -0.10277,0.0418 -0.25741,0.0469 -1.21649,0.0402 z"
     id="path16632" /><path
     style="fill:#ffff00;fill-opacity:1;stroke:none;stroke-width:0.061354;stroke-dasharray:none;stroke-opacity:1"
     d="m 377.17784,273.37295 c 0,-0.1955 4.04686,-5.37822 5.90232,-7.55896 1.60318,-1.88423 6.44919,-6.73367 8.47752,-8.48351 15.072,-13.0026 35.23619,-22.70079 57.1998,-27.51086 4.52894,-0.99185 7.99834,-1.56331 14.59288,-2.40369 5.14562,-0.65574 6.9768,-0.9499 8.84094,-1.42022 4.93246,-1.24447 7.83971,-3.67586 10.53056,-8.80689 1.10265,-2.10259 1.64017,-3.65612 2.83784,-8.20183 1.78352,-6.76934 3.68532,-10.45333 7.23686,-14.01868 1.60931,-1.61555 1.62728,-1.62971 6.02407,-4.74641 8.14033,-5.77035 13.53987,-9.2032 17.73513,-11.2754 3.03552,-1.49935 4.40787,-1.93446 7.0834,-2.24581 1.41775,-0.16498 6.43722,-0.16545 8.68116,-8.1e-4 2.82214,0.20707 6.36374,0.53649 8.75966,0.81478 1.24416,0.14451 2.2867,0.26275 2.31675,0.26275 0.0301,0 0.0546,0.2157 0.0546,0.47933 0,0.26363 -0.017,0.47933 -0.0378,0.47933 -0.0208,0 -1.03935,-0.11863 -2.26349,-0.26363 -5.92229,-0.70147 -9.93688,-0.9485 -14.32368,-0.8814 -4.85126,0.0742 -5.93797,0.29994 -9.31202,1.93427 -4.54744,2.20269 -9.94769,5.62147 -18.74705,11.86834 -3.12936,2.22161 -3.87301,2.79244 -4.88174,3.74729 -2.8102,2.66009 -4.89886,6.07269 -6.30424,10.30031 -0.2101,0.632 -0.71929,2.41932 -1.13154,3.97181 -1.18801,4.47392 -1.94403,6.5498 -3.19285,8.76682 -2.93327,5.20744 -6.23869,7.73608 -11.70481,8.95418 -1.72762,0.38499 -3.2811,0.62037 -8.14857,1.23466 -2.34338,0.29573 -5.31522,0.70283 -6.60408,0.90464 -27.04205,4.23443 -53.68146,17.07365 -69.76884,33.62605 -2.70105,2.77912 -5.06821,5.57998 -7.61599,9.01136 l -1.11844,1.50631 -0.55921,0.006 c -0.30757,0.004 -0.55922,-0.0192 -0.55922,-0.0506 z"
     id="path16634" /><path
     style="fill:#ffff00;fill-opacity:1;stroke:none;stroke-width:0.061354;stroke-dasharray:none;stroke-opacity:1"
     d="m 580.25368,182.56781 c -2.93994,-0.1359 -6.25014,-0.38291 -10.06645,-0.75117 -4.723,-0.45576 -16.92304,-1.82021 -21.35672,-2.38855 -2.05046,-0.26284 -3.96777,-0.50464 -4.26069,-0.53733 -1.13173,-0.12632 -1.11844,-0.11863 -1.11844,-0.64731 v -0.47569 l 0.34619,0.0586 c 1.1154,0.18879 10.57709,1.33502 16.27465,1.97158 14.9298,1.66801 19.40122,1.98996 26.19913,1.8864 4.93658,-0.0752 7.69132,-0.3125 12.00529,-1.0341 5.84754,-0.97812 12.41353,-2.93221 19.16198,-5.70277 1.06055,-0.43541 2.0272,-0.79165 2.1481,-0.79165 0.12091,0 0.23581,-0.0467 0.25534,-0.10371 0.0195,-0.0571 0.89829,-0.52874 1.95282,-1.04821 3.71045,-1.82782 7.83191,-4.24174 13.63421,-7.98551 9.37449,-6.04863 21.27424,-14.61166 28.8662,-20.77205 8.56272,-6.94812 17.53893,-15.7445 23.80662,-23.32973 l 0.9054,-1.09572 0.0317,0.70474 0.0317,0.70473 -1.57615,1.82652 c -6.60648,7.65586 -14.45723,15.2651 -22.56007,21.86603 -9.31995,7.59245 -23.84328,17.87362 -33.92739,24.01746 -4.77519,2.90933 -9.03186,5.15455 -12.40764,6.54452 -10.07431,4.14809 -18.0573,6.18769 -27.10866,6.92611 -2.42564,0.19788 -8.51128,0.2828 -11.23702,0.15681 z"
     id="path16636" /><path
     style="fill:#ffff00;fill-opacity:1;stroke:none;stroke-width:0.061354;stroke-dasharray:none;stroke-opacity:1"
     d="m 689.06057,120.38822 c 0,-0.59556 0.021,-0.64119 0.65062,-1.41135 9.84093,-12.03815 18.37645,-26.700827 24.61485,-42.284397 3.36262,-8.399837 5.98232,-16.451619 8.77019,-26.955543 0.56656,-2.134673 2.63285,-9.896788 4.59175,-17.249146 1.9589,-7.352359 3.70571,-14.06295 3.88182,-14.912426 0.57014,-2.750294 0.54047,-5.293119 -0.0852,-7.296436 -0.83598,-2.6768594 -2.72757,-5.315428 -4.82346,-6.7282148 -4.01399,-2.70572373 -8.68678,-2.73531082 -14.11354,-0.089364 -1.68112,0.8196699 -3.00275,1.679157 -5.59216,3.6367241 -8.21133,6.2076687 -26.12912,18.0372337 -54.43036,35.9356527 -30.76092,19.453988 -48.58888,31.985335 -66.34078,46.631223 -1.30743,1.078667 -2.39115,1.944446 -2.40827,1.923954 -0.0171,-0.02049 -0.0598,-0.256926 -0.0949,-0.52541 l -0.0638,-0.488153 1.93947,-1.599031 c 18.05787,-14.888186 35.57314,-27.191149 67.0748,-47.114241 27.35155,-17.298371 45.31234,-29.153657 53.57822,-35.3650932 4.72769,-3.5526561 6.74976,-4.6022661 10.8115,-5.61200299 1.03803,-0.25804867 1.3722,-0.29134704 2.92923,-0.29187522 1.07166,-3.6323e-4 2.00695,0.0546145 2.39664,0.14087917 4.07995,0.90316064 7.12292,3.23452794 9.03845,6.92480774 1.68236,3.2410745 1.96875,6.3946245 0.97799,10.7686405 -0.13934,0.615181 -1.79298,6.894413 -3.67475,13.953848 -1.88177,7.059436 -3.94996,14.821888 -4.596,17.249895 -4.33682,16.299315 -8.59622,27.994714 -14.59192,40.066231 -4.00631,8.066167 -8.05582,14.871218 -12.99849,21.843498 -2.41911,3.41245 -7.11376,9.46279 -7.34249,9.46279 -0.0547,0 -0.0995,-0.27696 -0.0995,-0.61546 z"
     id="path16638" /></g></svg>
